# xmcd
#
# Track frame offsets:
#	150
#	5123
#	11469
#	21159
#	28565
#	34165
#	41381
#	52805
#	59214
#	66433
#	80589
#	88150
#	97799
#	104814
#	112014
#	117072
#	126477
#	132412
#	139197
#	147909
#	154567
#	162404
#	170405
#	181432
#	189728
#	200631
#	209391
#	217253
#
# Disc length: 3044
#
# Revision: 1
# Processed by: cddbd v1.5.1PL0 Copyright (c) Steve Scherf et al.
# Submitted via: CD2WAV32(EN) R3.19
# Normalized: r0:TRMNUM
#
DISCID=a60be21c
DTITLE=Various Artist - Banjo Festival
DYEAR=1900
DGENRE=
TTITLE0=Jim McGuinn - Banjo Cantata
TTITLE1=Joe Maphis - Banjo Workout
TTITLE2=Mike Seeger - Holston Valley Breakdown
TTITLE3=Dick Rosmini - Little Boxes
TTITLE4=Jim Helms - There's A Meetin' Here Tonight
TTITLE5=Jim Helms - Miller's Cave
TTITLE6=Billy Cheatwood - Cripple Creek
TTITLE7=Goodman Coonhound - Billy Faier
TTITLE8=David Lindley - Clinch Mouontain Backstop
TTITLE9=David Lindley - The Johnson Boys
TTITLE10=Dick Rosmini - Red Apple Juice
TTITLE11=Billy Cheatwood - Hundreds Of Miles
TTITLE12=Dick Weissman - Old Joe Clark
TTITLE13=Jim Helms - Movin' Down The Line
TTITLE14=Art Podell - Hindu Stomp
TTITLE15=Mason Williams - Whistle While You Work
TTITLE16=David Lindley - Mad Mountain Medley
TTITLE17=Jim Helms - Hooka Tooka
TTITLE18=Dick Weissman - Trail Ridge Road
TTITLE19=Joe Maphis - Joe's Breakdown
TTITLE20=Erik Darling - Banjo Tune
TTITLE21=Dick Rosmini and Jim Helms - Greenback Dollar
TTITLE22=Jim McGuinn - Rumblin' On
TTITLE23=Dick Rosmini - Fast And Loose
TTITLE24=Mike Seeger - Goin' Down There
TTITLE25=Eric Weissberg and Marshall Brickman - Earle's Breakdown
TTITLE26=Billy Faier - Green Corn
TTITLE27=Mason Williams - Banjo Hello
EXTD=
EXTT0=
EXTT1=
EXTT2=
EXTT3=
EXTT4=
EXTT5=
EXTT6=
EXTT7=
EXTT8=
EXTT9=
EXTT10=
EXTT11=
EXTT12=
EXTT13=
EXTT14=
EXTT15=
EXTT16=
EXTT17=
EXTT18=
EXTT19=
EXTT20=
EXTT21=
EXTT22=
EXTT23=
EXTT24=
EXTT25=
EXTT26=
EXTT27=
PLAYORDER=
